<?xml version="1.0" encoding="utf-8"?>
<!-- Generator: Adobe Illustrator 26.0.3, SVG Export Plug-In . SVG Version: 6.00 Build 0)  -->
<svg version="1.1" id="Layer_1" xmlns="http://www.w3.org/2000/svg" x="0px" y="0px"
	 viewBox="0 0 246 323.8" style="enable-background:new 0 0 246 323.8;" xml:space="preserve">
<style type="text/css">
	.st0{fill:#FFE54A;}
	.st1{fill:#57C3FF;}
</style>
	<g>
	<path class="st0" d="M123,65.9c-41.8,0-75.7,33.9-75.7,75.7c0,26.1,13.2,49.2,33.4,62.8c1.7-1.2,3.6-2,5.7-2.4
		c12.5-2.3,26-2,36.9,5.6c3.6,2.5,6.3,5.7,7.9,9.2c38-4.1,67.5-36.2,67.5-75.3C198.7,99.8,164.8,65.9,123,65.9z"/>
		<path class="st1" d="M286.2,206.2c0.2-4.4,0.6-8.8,1.1-13.2c-0.5,0.2-1,0.3-1.6,0.5c-5.9,2-11.4,5.2-16.2,9.7
		c-11.4,10.7-29.2,10.8-40.8,0.4c-0.2-0.1-0.3-0.3-0.5-0.4c-4.9-4.5-10.5-7.8-16.5-9.8c-3.4-1.1-6.8-1.8-10.3-2.1
		c-4-0.3-8.1-0.1-12.1,0.6c-8.1,1.5-15.9,5.3-22.3,11.3c-4.5,4.2-9.9,6.7-15.5,7.7c-3.4,0.6-6.9,0.6-10.2,0
		c-5.7-1-11.1-3.5-15.5-7.7c-17.2-16.1-44-16.1-61.2,0c-1.6,1.5-3.4,2.8-5.2,3.9c-3.2,1.9-6.7,3.2-10.3,3.8c-3.4,0.6-6.9,0.6-10.2,0
		c-0.4,0-0.7-0.1-1-0.2c-0.6-0.1-1.1-0.2-1.7-0.4c-4.7-1.2-9-3.6-12.8-7.1c-3-2.8-6.2-5.1-9.7-6.9c-14-7.4-31.2-6.8-44.7,1.7v0.8
		c0.4,1.7,0.6,3.4,0.4,5.1c-0.1,1.3-0.3,2.6-0.4,4v8.7c0.9-0.7,1.8-1.4,2.6-2.1c0.2-0.2,0.4-0.4,0.6-0.6c11.6-10.8,29.7-10.8,41.2,0
		c9,8.5,20.8,12.5,32.3,12c7.9-0.3,15.8-2.7,22.6-7.1c2.2-1.4,4.3-3,6.2-4.9c1.2-1.1,2.4-2.1,3.7-3c10.2-6.9,23.6-6.9,33.8,0
		c1.3,0.9,2.6,1.9,3.7,3c17.2,16.1,44,16.1,61.2,0c0.5-0.5,1-0.9,1.5-1.3c0.7-0.6,1.5-1.1,2.2-1.7c6.8-4.6,15.1-6.1,22.9-4.5
		c1.1,0.2,2.2,0.5,3.3,0.8c2.7,0.9,5.2,2.1,7.6,3.7c1.3,0.9,2.6,1.9,3.7,3c11.3,10.5,26.7,14.2,40.9,10.9l0,0
		c7.4-1.7,14.4-5.4,20.3-10.9c2-1.9,4.2-3.4,6.6-4.7C286.2,208.2,286.2,207.2,286.2,206.2z"/>
		<path class="st1" d="M285.9,250.1c0-0.5,0-1.1,0-1.6h-0.1c-5.9,2-11.4,5.2-16.2,9.7c-11.4,10.7-29.2,10.8-40.8,0.4
		c-0.2-0.1-0.3-0.3-0.5-0.4c-7.6-7.1-17.1-11.1-26.8-11.9c-12.3-1-24.8,2.9-34.4,11.9c-4.4,4.2-9.9,6.7-15.5,7.7
		c-3.4,0.6-6.9,0.6-10.2,0c-5.6-1-11.1-3.5-15.5-7.7c-17.2-16.1-44-16.1-61.2,0c-4.4,4.2-9.9,6.7-15.5,7.7c-3.4,0.6-6.9,0.6-10.2,0
		c-0.3-0.1-0.7-0.1-1-0.2c-5.3-1.1-10.3-3.6-14.5-7.5c-3-2.8-6.2-5.1-9.7-6.9c-14-7.4-31.2-6.8-44.7,1.7v18.6
		c0.9-0.7,1.8-1.4,2.6-2.2c0.2-0.2,0.4-0.4,0.6-0.6c11.6-10.8,29.7-10.8,41.2,0c17.2,16.1,44,16.1,61.2,0c1.2-1.1,2.4-2.1,3.7-3
		c10.2-6.9,23.6-6.9,33.8,0c1.3,0.9,2.6,1.9,3.7,3c17.2,16.1,44,16.1,61.2,0c1.2-1.1,2.4-2.1,3.7-3c6.8-4.6,15.1-6.1,22.9-4.5
		c3.8,0.8,7.5,2.3,10.9,4.5c1.3,0.9,2.6,1.9,3.7,3c11.3,10.5,26.7,14.2,40.9,10.9l0,0c7.4-1.7,14.4-5.4,20.3-10.9
		c1.9-1.8,3.9-3.2,6.1-4.4C285.7,259.7,285.9,254.9,285.9,250.1z"/>
</g>
</svg>
