<svg xmlns="http://www.w3.org/2000/svg" xmlns:xlink="http://www.w3.org/1999/xlink" viewBox="0 0 67 73.54"><defs><style>.cls-1{fill:url(#New_Gradient_Swatch_copy);}.cls-2{fill:url(#New_Gradient_Swatch_copy_2);}.cls-3{fill:#fff;}.cls-4{fill:url(#New_Gradient_Swatch_copy_2-2);}.cls-5{fill:url(#New_Gradient_Swatch_copy_2-3);}.cls-6{fill:url(#New_Gradient_Swatch_copy_2-4);}.cls-7{fill:url(#New_Gradient_Swatch_copy_2-5);}.cls-8{fill:url(#New_Gradient_Swatch_copy_2-6);}.cls-9{fill:url(#New_Gradient_Swatch_copy_2-7);}.cls-10{fill:url(#New_Gradient_Swatch_copy_2-8);}.cls-11{fill:url(#New_Gradient_Swatch_copy_2-9);}</style><linearGradient id="New_Gradient_Swatch_copy" x1="42.62" y1="24.38" x2="58.22" y2="8.78" gradientUnits="userSpaceOnUse"><stop offset="0" stop-color="#00aeef"/><stop offset="1" stop-color="#00bdf2"/></linearGradient><linearGradient id="New_Gradient_Swatch_copy_2" x1="11.8" y1="49.05" x2="44.17" y2="16.68" gradientUnits="userSpaceOnUse"><stop offset="0" stop-color="#d0e8f8"/><stop offset="1" stop-color="#e1eef9"/></linearGradient><linearGradient id="New_Gradient_Swatch_copy_2-2" x1="11.77" y1="55.26" x2="15.77" y2="55.26" xlink:href="#New_Gradient_Swatch_copy_2"/><linearGradient id="New_Gradient_Swatch_copy_2-3" x1="21.77" y1="55.26" x2="25.77" y2="55.26" xlink:href="#New_Gradient_Swatch_copy_2"/><linearGradient id="New_Gradient_Swatch_copy_2-4" x1="31.77" y1="55.26" x2="35.77" y2="55.26" xlink:href="#New_Gradient_Swatch_copy_2"/><linearGradient id="New_Gradient_Swatch_copy_2-5" x1="11.77" y1="71.54" x2="15.77" y2="71.54" xlink:href="#New_Gradient_Swatch_copy_2"/><linearGradient id="New_Gradient_Swatch_copy_2-6" x1="21.77" y1="71.54" x2="25.77" y2="71.54" xlink:href="#New_Gradient_Swatch_copy_2"/><linearGradient id="New_Gradient_Swatch_copy_2-7" x1="16.77" y1="63.54" x2="20.77" y2="63.54" xlink:href="#New_Gradient_Swatch_copy_2"/><linearGradient id="New_Gradient_Swatch_copy_2-8" x1="26.77" y1="63.54" x2="30.77" y2="63.54" xlink:href="#New_Gradient_Swatch_copy_2"/><linearGradient id="New_Gradient_Swatch_copy_2-9" x1="41.49" y1="57.09" x2="51.15" y2="57.09" xlink:href="#New_Gradient_Swatch_copy_2"/></defs><g id="Layer_2" data-name="Layer 2"><g id="Icons"><g id="Blizzard_Night" data-name="Blizzard Night"><path class="cls-1" d="M52.94,28.67A14.6,14.6,0,0,1,48.91,0a.77.77,0,0,1,.75.19.76.76,0,0,1,.19.76A13.07,13.07,0,0,0,62.41,17.66,13.17,13.17,0,0,0,66,17.15a.76.76,0,0,1,1,.94A14.67,14.67,0,0,1,52.94,28.67Z"/><path class="cls-2" d="M46,45a10.67,10.67,0,1,0,0-21.33h-.11a17,17,0,0,0-32.44-5.06H13.2a13.2,13.2,0,0,0,0,26.4"/><path class="cls-3" d="M60.22,45a6.7,6.7,0,1,0,0-13.4h-.07a10.69,10.69,0,0,0-20.37-3.18h-.16a8.29,8.29,0,1,0,0,16.58"/><circle class="cls-4" cx="13.77" cy="55.26" r="2"/><circle class="cls-5" cx="23.77" cy="55.26" r="2"/><circle class="cls-6" cx="33.77" cy="55.26" r="2"/><circle class="cls-7" cx="13.77" cy="71.54" r="2"/><circle class="cls-8" cx="23.77" cy="71.54" r="2"/><circle class="cls-9" cx="18.77" cy="63.54" r="2"/><circle class="cls-10" cx="28.77" cy="63.54" r="2"/><circle class="cls-11" cx="46.32" cy="57.09" r="4.83"/></g></g></g></svg>