<svg xmlns="http://www.w3.org/2000/svg" xmlns:xlink="http://www.w3.org/1999/xlink" viewBox="0 0 67 67.9"><defs><style>.cls-1{fill:url(#New_Gradient_Swatch_copy);}.cls-2{fill:url(#New_Gradient_Swatch_copy_2);}.cls-3{fill:#fff;}.cls-4{fill:url(#New_Gradient_Swatch_copy-2);}.cls-5{fill:url(#New_Gradient_Swatch_copy-3);}.cls-6{fill:url(#New_Gradient_Swatch_copy-4);}.cls-7{fill:url(#New_Gradient_Swatch_copy-5);}.cls-8{fill:url(#New_Gradient_Swatch_copy-6);}.cls-9{fill:url(#New_Gradient_Swatch_copy-7);}</style><linearGradient id="New_Gradient_Swatch_copy" x1="42.62" y1="24.38" x2="58.22" y2="8.78" gradientUnits="userSpaceOnUse"><stop offset="0" stop-color="#00aeef"/><stop offset="1" stop-color="#00bdf2"/></linearGradient><linearGradient id="New_Gradient_Swatch_copy_2" x1="11.8" y1="48.44" x2="44.17" y2="16.08" gradientUnits="userSpaceOnUse"><stop offset="0" stop-color="#d0e8f8"/><stop offset="1" stop-color="#e1eef9"/></linearGradient><linearGradient id="New_Gradient_Swatch_copy-2" x1="10.14" y1="56.22" x2="17.03" y2="56.22" xlink:href="#New_Gradient_Swatch_copy"/><linearGradient id="New_Gradient_Swatch_copy-3" x1="26.26" y1="56.22" x2="33.14" y2="56.22" xlink:href="#New_Gradient_Swatch_copy"/><linearGradient id="New_Gradient_Swatch_copy-4" x1="42.37" y1="56.22" x2="49.25" y2="56.22" xlink:href="#New_Gradient_Swatch_copy"/><linearGradient id="New_Gradient_Swatch_copy-5" x1="15.14" y1="63.4" x2="22.03" y2="63.4" xlink:href="#New_Gradient_Swatch_copy"/><linearGradient id="New_Gradient_Swatch_copy-6" x1="31.76" y1="63.4" x2="38.64" y2="63.4" xlink:href="#New_Gradient_Swatch_copy"/><linearGradient id="New_Gradient_Swatch_copy-7" x1="48.37" y1="63.4" x2="55.25" y2="63.4" xlink:href="#New_Gradient_Swatch_copy"/></defs><g id="Layer_2" data-name="Layer 2"><g id="Icons"><g id="Drizzle_Night" data-name="Drizzle Night"><path class="cls-1" d="M52.94,28.67A14.6,14.6,0,0,1,48.91,0a.77.77,0,0,1,.75.19.76.76,0,0,1,.19.76A13.07,13.07,0,0,0,62.41,17.66,13.17,13.17,0,0,0,66,17.15a.76.76,0,0,1,1,.94A14.67,14.67,0,0,1,52.94,28.67Z"/><path class="cls-2" d="M46,44.37A10.67,10.67,0,1,0,46,23h-.11A17,17,0,0,0,13.45,18H13.2a13.2,13.2,0,0,0,0,26.4"/><path class="cls-3" d="M60.22,44.37a6.7,6.7,0,1,0,0-13.39h-.07A10.69,10.69,0,0,0,39.78,27.8h-.16a8.29,8.29,0,1,0,0,16.58"/><path class="cls-4" d="M12.14,60.72a2,2,0,0,1-1-.27,2,2,0,0,1-.73-2.73l2.89-5a2,2,0,1,1,3.46,2l-2.88,5A2,2,0,0,1,12.14,60.72Z"/><path class="cls-5" d="M28.25,60.72a2,2,0,0,1-1-.27,2,2,0,0,1-.74-2.73l2.89-5a2,2,0,1,1,3.46,2l-2.88,5A2,2,0,0,1,28.25,60.72Z"/><path class="cls-6" d="M44.37,60.72a2,2,0,0,1-1.74-3l2.89-5a2,2,0,0,1,3.47,2l-2.89,5A2,2,0,0,1,44.37,60.72Z"/><path class="cls-7" d="M17.14,67.9a2,2,0,0,1-1-.27,2,2,0,0,1-.73-2.73l2.89-5a2,2,0,1,1,3.46,2l-2.88,5A2,2,0,0,1,17.14,67.9Z"/><path class="cls-8" d="M33.75,67.9a2,2,0,0,1-1.73-3l2.89-5a2,2,0,0,1,3.47,2l-2.89,5A2,2,0,0,1,33.75,67.9Z"/><path class="cls-9" d="M50.37,67.9a2,2,0,0,1-1.74-3l2.89-5a2,2,0,0,1,3.47,2l-2.89,5A2,2,0,0,1,50.37,67.9Z"/></g></g></g></svg>