<svg xmlns="http://www.w3.org/2000/svg" xmlns:xlink="http://www.w3.org/1999/xlink" viewBox="0 0 68.06 61.84"><defs><style>.cls-1{fill:url(#New_Gradient_Swatch_copy);}.cls-2{fill:url(#New_Gradient_Swatch_copy_2);}.cls-3{fill:#fff;}.cls-4{fill:url(#New_Gradient_Swatch_copy-2);}.cls-5{fill:url(#New_Gradient_Swatch_copy-3);}.cls-6{fill:url(#New_Gradient_Swatch_copy-4);}.cls-7{fill:url(#New_Gradient_Swatch_copy-5);}</style><linearGradient id="New_Gradient_Swatch_copy" x1="43.68" y1="24.38" x2="59.28" y2="8.78" gradientUnits="userSpaceOnUse"><stop offset="0" stop-color="#00aeef"/><stop offset="1" stop-color="#00bdf2"/></linearGradient><linearGradient id="New_Gradient_Swatch_copy_2" y1="25.33" x2="56.67" y2="25.33" gradientUnits="userSpaceOnUse"><stop offset="0" stop-color="#d0e8f8"/><stop offset="1" stop-color="#e1eef9"/></linearGradient><linearGradient id="New_Gradient_Swatch_copy-2" x1="9.13" y1="52.34" x2="22.13" y2="52.34" xlink:href="#New_Gradient_Swatch_copy"/><linearGradient id="New_Gradient_Swatch_copy-3" x1="25.63" y1="52.34" x2="43.63" y2="52.34" xlink:href="#New_Gradient_Swatch_copy"/><linearGradient id="New_Gradient_Swatch_copy-4" x1="9.13" y1="60.34" x2="32.13" y2="60.34" xlink:href="#New_Gradient_Swatch_copy"/><linearGradient id="New_Gradient_Swatch_copy-5" x1="35.63" y1="60.34" x2="53.63" y2="60.34" xlink:href="#New_Gradient_Swatch_copy"/></defs><g id="Layer_2" data-name="Layer 2"><g id="Icons"><g id="Fog_Night" data-name="Fog Night"><path class="cls-1" d="M54,28.67A14.6,14.6,0,0,1,50,0a.77.77,0,0,1,.75.19.76.76,0,0,1,.19.76A13.07,13.07,0,0,0,63.47,17.66a13.17,13.17,0,0,0,3.61-.51.76.76,0,0,1,1,.94A14.67,14.67,0,0,1,54,28.67Z"/><path class="cls-2" d="M46,43.55a10.67,10.67,0,1,0,0-21.33h-.11a17,17,0,0,0-32.44-5.06H13.2a13.2,13.2,0,0,0,0,26.4"/><path class="cls-3" d="M60.22,43.55a6.7,6.7,0,1,0,0-13.4h-.07A10.69,10.69,0,0,0,39.78,27h-.16a8.29,8.29,0,0,0,0,16.58"/><path class="cls-4" d="M20.63,53.84h-10a1.5,1.5,0,0,1,0-3h10a1.5,1.5,0,0,1,0,3Z"/><path class="cls-5" d="M42.13,53.84h-15a1.5,1.5,0,1,1,0-3h15a1.5,1.5,0,0,1,0,3Z"/><path class="cls-6" d="M30.63,61.84h-20a1.5,1.5,0,1,1,0-3h20a1.5,1.5,0,1,1,0,3Z"/><path class="cls-7" d="M52.13,61.84h-15a1.5,1.5,0,1,1,0-3h15a1.5,1.5,0,0,1,0,3Z"/></g></g></g></svg>