<svg xmlns="http://www.w3.org/2000/svg" xmlns:xlink="http://www.w3.org/1999/xlink" viewBox="0 0 64.11 40.91"><defs><style>.cls-1{fill:url(#New_Gradient_Swatch_1);}.cls-2{fill:#fff;}</style><linearGradient id="New_Gradient_Swatch_1" x1="5.99" y1="34.92" x2="34.92" y2="5.99" gradientUnits="userSpaceOnUse"><stop offset="0" stop-color="#fdb728"/><stop offset="1" stop-color="#ffcd23"/></linearGradient></defs><g id="Layer_2" data-name="Layer 2"><g id="Icons"><g id="Haze"><circle class="cls-1" cx="20.46" cy="20.46" r="20.46"/><path class="cls-2" d="M31.11,21.16h-10a1.5,1.5,0,0,1,0-3h10a1.5,1.5,0,0,1,0,3Z"/><path class="cls-2" d="M52.61,21.16h-15a1.5,1.5,0,0,1,0-3h15a1.5,1.5,0,0,1,0,3Z"/><path class="cls-2" d="M31.11,35.66h-10a1.5,1.5,0,0,1,0-3h10a1.5,1.5,0,0,1,0,3Z"/><path class="cls-2" d="M52.61,35.66h-15a1.5,1.5,0,0,1,0-3h15a1.5,1.5,0,0,1,0,3Z"/><path class="cls-2" d="M41.11,28.66h-20a1.5,1.5,0,0,1,0-3h20a1.5,1.5,0,0,1,0,3Z"/><path class="cls-2" d="M62.61,28.66h-15a1.5,1.5,0,0,1,0-3h15a1.5,1.5,0,0,1,0,3Z"/></g></g></g></svg>