<svg xmlns="http://www.w3.org/2000/svg" xmlns:xlink="http://www.w3.org/1999/xlink" viewBox="0 0 67 73.04"><defs><style>.cls-1{fill:url(#New_Gradient_Swatch_copy);}.cls-2{fill:url(#New_Gradient_Swatch_copy_2);}.cls-3{fill:#fff;}.cls-4{fill:url(#New_Gradient_Swatch_copy-2);}.cls-5{fill:url(#New_Gradient_Swatch_copy-3);}.cls-6{fill:url(#New_Gradient_Swatch_copy-4);}.cls-7{fill:url(#New_Gradient_Swatch_copy-5);}</style><linearGradient id="New_Gradient_Swatch_copy" x1="42.62" y1="24.38" x2="58.22" y2="8.78" gradientUnits="userSpaceOnUse"><stop offset="0" stop-color="#00aeef"/><stop offset="1" stop-color="#00bdf2"/></linearGradient><linearGradient id="New_Gradient_Swatch_copy_2" x1="11.8" y1="48.44" x2="44.17" y2="16.08" gradientUnits="userSpaceOnUse"><stop offset="0" stop-color="#d0e8f8"/><stop offset="1" stop-color="#e1eef9"/></linearGradient><linearGradient id="New_Gradient_Swatch_copy-2" x1="4.82" y1="59.34" x2="15.31" y2="59.34" xlink:href="#New_Gradient_Swatch_copy"/><linearGradient id="New_Gradient_Swatch_copy-3" x1="11.96" y1="62.38" x2="25.96" y2="62.38" xlink:href="#New_Gradient_Swatch_copy"/><linearGradient id="New_Gradient_Swatch_copy-4" x1="36.74" y1="58.91" x2="46.74" y2="58.91" xlink:href="#New_Gradient_Swatch_copy"/><linearGradient id="New_Gradient_Swatch_copy-5" x1="24.85" y1="60.64" x2="36.85" y2="60.64" xlink:href="#New_Gradient_Swatch_copy"/></defs><g id="Layer_2" data-name="Layer 2"><g id="Icons"><g id="Heavy_Rain_Night" data-name="Heavy Rain Night"><path class="cls-1" d="M52.94,28.67A14.6,14.6,0,0,1,48.91,0a.77.77,0,0,1,.75.19.76.76,0,0,1,.19.76A13.07,13.07,0,0,0,62.41,17.66,13.17,13.17,0,0,0,66,17.15a.76.76,0,0,1,1,.94A14.67,14.67,0,0,1,52.94,28.67Z"/><path class="cls-2" d="M46,44.37A10.67,10.67,0,1,0,46,23h-.11A17,17,0,0,0,13.45,18H13.2a13.2,13.2,0,0,0,0,26.4"/><path class="cls-3" d="M60.22,44.37a6.7,6.7,0,1,0,0-13.39h-.07A10.69,10.69,0,0,0,39.78,27.8h-.16a8.29,8.29,0,1,0,0,16.58"/><path class="cls-4" d="M6.81,67a1.87,1.87,0,0,1-1-.27A2,2,0,0,1,5.08,64l6.5-11.25a2,2,0,1,1,3.47,2L8.55,66A2,2,0,0,1,6.81,67Z"/><path class="cls-5" d="M14,73a2,2,0,0,1-1-.27A2,2,0,0,1,12.22,70l10-17.32a2,2,0,1,1,3.47,2L15.69,72A2,2,0,0,1,14,73Z"/><path class="cls-6" d="M38.73,66.11a2,2,0,0,1-1.73-3l6-10.39a2,2,0,1,1,3.47,2l-6,10.39A2,2,0,0,1,38.73,66.11Z"/><path class="cls-7" d="M26.84,69.57a2,2,0,0,1-1-.26,2,2,0,0,1-.74-2.74l8-13.85a2,2,0,1,1,3.47,2l-8,13.85A2,2,0,0,1,26.84,69.57Z"/></g></g></g></svg>