<svg xmlns="http://www.w3.org/2000/svg" xmlns:xlink="http://www.w3.org/1999/xlink" viewBox="0 0 67.2 59.05"><defs><style>.cls-1{fill:url(#New_Gradient_Swatch_1);}.cls-2{fill:#fff;}.cls-3{fill:url(#New_Gradient_Swatch_copy_2);}.cls-4{fill:url(#New_Gradient_Swatch_copy);}.cls-5{fill:url(#New_Gradient_Swatch_copy-2);}</style><linearGradient id="New_Gradient_Swatch_1" x1="28.79" y1="54.72" x2="48" y2="35.51" gradientUnits="userSpaceOnUse"><stop offset="0" stop-color="#fdb728"/><stop offset="1" stop-color="#ffcd23"/></linearGradient><linearGradient id="New_Gradient_Swatch_copy_2" x1="38.75" y1="39" x2="59.07" y2="18.67" gradientUnits="userSpaceOnUse"><stop offset="0" stop-color="#d0e8f8"/><stop offset="1" stop-color="#e1eef9"/></linearGradient><linearGradient id="New_Gradient_Swatch_copy" x1="3.82" y1="51.33" x2="14.31" y2="51.33" gradientUnits="userSpaceOnUse"><stop offset="0" stop-color="#00aeef"/><stop offset="1" stop-color="#00bdf2"/></linearGradient><linearGradient id="New_Gradient_Swatch_copy-2" x1="14.45" y1="51.33" x2="24.95" y2="51.33" xlink:href="#New_Gradient_Swatch_copy"/></defs><g id="Layer_2" data-name="Layer 2"><g id="Icons"><g id="Mix_Rainfall" data-name="Mix Rainfall"><path class="cls-1" d="M40.6,32.7a5.76,5.76,0,0,0-4.5,2.6l-5.27,9.12c-.82,1.43-.15,2.5,1.5,2.38l4.3-.32c1.64-.12,2.34,1,1.56,2.42L33.4,57.7c-.79,1.45-.39,1.78.89.73L51.59,44.2c1.27-1.05,1-1.83-.68-1.75l-6.61.34c-1.65.08-2.32-1-1.5-2.45l2.91-5c.83-1.42.15-2.59-1.5-2.6Z"/><path class="cls-2" d="M46,36.44a10.67,10.67,0,1,0,0-21.33h-.11a17,17,0,0,0-32.44-5.07H13.2a13.2,13.2,0,0,0,0,26.4"/><path class="cls-3" d="M60.22,36.44a6.7,6.7,0,1,0,0-13.39h-.07a10.69,10.69,0,0,0-20.37-3.18h-.16a8.29,8.29,0,0,0,0,16.58"/><path class="cls-4" d="M5.81,59a2,2,0,0,1-1-.26A2,2,0,0,1,4.08,56l6.5-11.25a2,2,0,1,1,3.47,2L7.55,58A2,2,0,0,1,5.81,59Z"/><path class="cls-5" d="M16.45,59a2,2,0,0,1-1.73-3l6.5-11.25a2,2,0,1,1,3.46,2L18.18,58A2,2,0,0,1,16.45,59Z"/></g></g></g></svg>