<svg xmlns="http://www.w3.org/2000/svg" xmlns:xlink="http://www.w3.org/1999/xlink" viewBox="0 0 67 45.11"><defs><style>.cls-1{fill:url(#New_Gradient_Swatch_copy);}.cls-2{fill:url(#New_Gradient_Swatch_copy_2);}.cls-3{fill:#fff;}</style><linearGradient id="New_Gradient_Swatch_copy" x1="42.62" y1="24.38" x2="58.22" y2="8.78" gradientUnits="userSpaceOnUse"><stop offset="0" stop-color="#00aeef"/><stop offset="1" stop-color="#00bdf2"/></linearGradient><linearGradient id="New_Gradient_Swatch_copy_2" x1="11.8" y1="49.18" x2="44.17" y2="16.81" gradientUnits="userSpaceOnUse"><stop offset="0" stop-color="#d0e8f8"/><stop offset="1" stop-color="#e1eef9"/></linearGradient></defs><g id="Layer_2" data-name="Layer 2"><g id="Icons"><g id="Mostly_Cloudy_Night" data-name="Mostly Cloudy Night"><path class="cls-1" d="M52.94,28.67A14.6,14.6,0,0,1,48.91,0a.77.77,0,0,1,.75.19.76.76,0,0,1,.19.76A13.07,13.07,0,0,0,62.41,17.66,13.17,13.17,0,0,0,66,17.15a.76.76,0,0,1,1,.94A14.67,14.67,0,0,1,52.94,28.67Z"/><path class="cls-2" d="M46,45.11a10.67,10.67,0,1,0,0-21.33h-.11a17,17,0,0,0-32.44-5.06H13.2a13.2,13.2,0,0,0,0,26.4"/><path class="cls-3" d="M60.22,45.11a6.7,6.7,0,1,0,0-13.4h-.07a10.69,10.69,0,0,0-20.37-3.18h-.16a8.29,8.29,0,0,0,0,16.58"/></g></g></g></svg>