<svg xmlns="http://www.w3.org/2000/svg" xmlns:xlink="http://www.w3.org/1999/xlink" viewBox="0 0 67.2 66.97"><defs><style>.cls-1{fill:url(#New_Gradient_Swatch_copy);}.cls-2{fill:url(#New_Gradient_Swatch_copy_2);}.cls-3{fill:#fff;}.cls-4{fill:url(#New_Gradient_Swatch_copy-2);}.cls-5{fill:url(#New_Gradient_Swatch_copy-3);}.cls-6{fill:url(#New_Gradient_Swatch_copy-4);}</style><linearGradient id="New_Gradient_Swatch_copy" x1="42.62" y1="24.38" x2="58.22" y2="8.78" gradientUnits="userSpaceOnUse"><stop offset="0" stop-color="#00aeef"/><stop offset="1" stop-color="#00bdf2"/></linearGradient><linearGradient id="New_Gradient_Swatch_copy_2" x1="11.8" y1="48.44" x2="44.17" y2="16.08" gradientUnits="userSpaceOnUse"><stop offset="0" stop-color="#d0e8f8"/><stop offset="1" stop-color="#e1eef9"/></linearGradient><linearGradient id="New_Gradient_Swatch_copy-2" x1="3.82" y1="59.34" x2="14.31" y2="59.34" xlink:href="#New_Gradient_Swatch_copy"/><linearGradient id="New_Gradient_Swatch_copy-3" x1="14.95" y1="59.34" x2="25.45" y2="59.34" xlink:href="#New_Gradient_Swatch_copy"/><linearGradient id="New_Gradient_Swatch_copy-4" x1="26.08" y1="59.34" x2="36.58" y2="59.34" xlink:href="#New_Gradient_Swatch_copy"/></defs><g id="Layer_2" data-name="Layer 2"><g id="Icons"><g id="Rain_Nght" data-name="Rain Nght"><path class="cls-1" d="M52.94,28.67A14.6,14.6,0,0,1,48.91,0a.77.77,0,0,1,.75.19.76.76,0,0,1,.19.76A13.07,13.07,0,0,0,62.41,17.66,13.17,13.17,0,0,0,66,17.15a.76.76,0,0,1,1,.94A14.67,14.67,0,0,1,52.94,28.67Z"/><path class="cls-2" d="M46,44.37A10.67,10.67,0,1,0,46,23h-.11A17,17,0,0,0,13.45,18H13.2a13.2,13.2,0,0,0,0,26.4"/><path class="cls-3" d="M60.22,44.37a6.7,6.7,0,1,0,0-13.39h-.07A10.69,10.69,0,0,0,39.78,27.8h-.16a8.29,8.29,0,1,0,0,16.58"/><path class="cls-4" d="M5.81,67a2,2,0,0,1-1-.26A2,2,0,0,1,4.08,64l6.5-11.25a2,2,0,1,1,3.47,2L7.55,66A2,2,0,0,1,5.81,67Z"/><path class="cls-5" d="M17,67a2,2,0,0,1-1.73-3l6.5-11.25a2,2,0,1,1,3.46,2L18.68,66A2,2,0,0,1,17,67Z"/><path class="cls-6" d="M28.08,67a2,2,0,0,1-1.73-3l6.5-11.25a2,2,0,1,1,3.46,2L29.82,66A2,2,0,0,1,28.08,67Z"/></g></g></g></svg>