<svg xmlns="http://www.w3.org/2000/svg" xmlns:xlink="http://www.w3.org/1999/xlink" viewBox="0 0 67.2 63.26"><defs><style>.cls-1{fill:url(#New_Gradient_Swatch_1);}.cls-2{fill:url(#New_Gradient_Swatch_1-2);}.cls-3{fill:#fff;}.cls-4{fill:url(#New_Gradient_Swatch_copy_2);}</style><linearGradient id="New_Gradient_Swatch_1" x1="40.36" y1="22.13" x2="58.69" y2="3.8" gradientUnits="userSpaceOnUse"><stop offset="0" stop-color="#fdb728"/><stop offset="1" stop-color="#ffcd23"/></linearGradient><linearGradient id="New_Gradient_Swatch_1-2" x1="15.79" y1="58.94" x2="35" y2="39.73" xlink:href="#New_Gradient_Swatch_1"/><linearGradient id="New_Gradient_Swatch_copy_2" x1="38.75" y1="43.21" x2="59.07" y2="22.89" gradientUnits="userSpaceOnUse"><stop offset="0" stop-color="#d0e8f8"/><stop offset="1" stop-color="#e1eef9"/></linearGradient></defs><g id="Layer_2" data-name="Layer 2"><g id="Icons"><g id="Scattered_Thunderstorm" data-name="Scattered Thunderstorm"><circle class="cls-1" cx="49.52" cy="12.96" r="12.96"/><path class="cls-2" d="M27.6,36.91a5.76,5.76,0,0,0-4.5,2.6l-5.27,9.12c-.82,1.43-.15,2.5,1.5,2.38l4.3-.32c1.64-.12,2.34,1,1.56,2.42L20.4,61.92c-.79,1.45-.39,1.77.89.73l17.3-14.23c1.27-1.05,1-1.84-.68-1.76L31.3,47c-1.65.09-2.32-1-1.5-2.44l2.91-5c.83-1.43.15-2.6-1.5-2.6Z"/><path class="cls-3" d="M46,40.65a10.66,10.66,0,1,0,0-21.32h-.11a17,17,0,0,0-32.44-5.07H13.2a13.2,13.2,0,1,0,0,26.39"/><path class="cls-4" d="M60.22,40.65a6.7,6.7,0,1,0,0-13.39h-.07a10.69,10.69,0,0,0-20.37-3.18h-.16a8.29,8.29,0,1,0,0,16.57"/></g></g></g></svg>