<svg xmlns="http://www.w3.org/2000/svg" xmlns:xlink="http://www.w3.org/1999/xlink" viewBox="0 0 67 68.09"><defs><style>.cls-1{fill:url(#New_Gradient_Swatch_1);}.cls-2{fill:url(#New_Gradient_Swatch_copy);}.cls-3{fill:url(#New_Gradient_Swatch_copy_2);}.cls-4{fill:#fff;}.cls-5{fill:url(#New_Gradient_Swatch_1-2);}.cls-6{fill:url(#New_Gradient_Swatch_1-3);}</style><linearGradient id="New_Gradient_Swatch_1" x1="15.79" y1="63.77" x2="35" y2="44.56" gradientUnits="userSpaceOnUse"><stop offset="0" stop-color="#fdb728"/><stop offset="1" stop-color="#ffcd23"/></linearGradient><linearGradient id="New_Gradient_Swatch_copy" x1="42.62" y1="24.38" x2="58.22" y2="8.78" gradientUnits="userSpaceOnUse"><stop offset="0" stop-color="#00aeef"/><stop offset="1" stop-color="#00bdf2"/></linearGradient><linearGradient id="New_Gradient_Swatch_copy_2" x1="11.8" y1="49.56" x2="44.17" y2="17.19" gradientUnits="userSpaceOnUse"><stop offset="0" stop-color="#d0e8f8"/><stop offset="1" stop-color="#e1eef9"/></linearGradient><linearGradient id="New_Gradient_Swatch_1-2" x1="60.72" y1="6.58" x2="64.39" y2="2.91" xlink:href="#New_Gradient_Swatch_1"/><linearGradient id="New_Gradient_Swatch_1-3" x1="5.88" y1="9.75" x2="8.86" y2="6.78" xlink:href="#New_Gradient_Swatch_1"/></defs><g id="Layer_2" data-name="Layer 2"><g id="Icons"><g id="Scattered_Thunderstorm_Night" data-name="Scattered Thunderstorm Night"><path class="cls-1" d="M27.6,41.75a5.77,5.77,0,0,0-4.5,2.59l-5.27,9.13c-.82,1.43-.15,2.5,1.5,2.37l4.3-.31c1.64-.12,2.34,1,1.56,2.41L20.4,66.75c-.79,1.45-.39,1.78.89.73l17.3-14.23c1.27-1,1-1.83-.68-1.75l-6.61.34c-1.65.08-2.32-1-1.5-2.45l2.91-5c.83-1.43.15-2.6-1.5-2.6Z"/><path class="cls-2" d="M52.94,28.67A14.6,14.6,0,0,1,48.91,0a.77.77,0,0,1,.75.19.76.76,0,0,1,.19.76A13.07,13.07,0,0,0,62.41,17.66,13.17,13.17,0,0,0,66,17.15a.76.76,0,0,1,1,.94A14.67,14.67,0,0,1,52.94,28.67Z"/><path class="cls-3" d="M46,45.49a10.67,10.67,0,1,0,0-21.33h-.11A17,17,0,0,0,13.45,19.1H13.2a13.2,13.2,0,0,0,0,26.4"/><path class="cls-4" d="M60.22,45.49a6.7,6.7,0,1,0,0-13.39h-.07a10.69,10.69,0,0,0-20.37-3.18h-.16a8.29,8.29,0,0,0,0,16.58"/><path class="cls-5" d="M63.06,7.56c-.28,1-.72,1-1,0a3.67,3.67,0,0,0-2.32-2.32c-1-.27-1-.72,0-1a3.68,3.68,0,0,0,2.32-2.33c.28-1,.72-1,1,0a3.68,3.68,0,0,0,2.32,2.33c1,.27,1,.72,0,1A3.67,3.67,0,0,0,63.06,7.56Z"/><path class="cls-6" d="M7.77,10.55c-.22.81-.58.81-.8,0A3,3,0,0,0,5.09,8.66c-.82-.22-.82-.58,0-.8A3,3,0,0,0,7,6c.22-.82.58-.82.8,0A3,3,0,0,0,9.65,7.86c.82.22.82.58,0,.8A3,3,0,0,0,7.77,10.55Z"/></g></g></g></svg>