<svg xmlns="http://www.w3.org/2000/svg" xmlns:xlink="http://www.w3.org/1999/xlink" viewBox="0 0 67.2 58.72"><defs><style>.cls-1{fill:url(#New_Gradient_Swatch_1);}.cls-2{fill:#fff;}.cls-3{fill:url(#New_Gradient_Swatch_copy_2);}.cls-4{fill:url(#New_Gradient_Swatch_copy);}.cls-5{fill:url(#New_Gradient_Swatch_copy-2);}.cls-6{fill:url(#New_Gradient_Swatch_copy-3);}</style><linearGradient id="New_Gradient_Swatch_1" x1="39.16" y1="22.13" x2="57.49" y2="3.8" gradientUnits="userSpaceOnUse"><stop offset="0" stop-color="#fdb728"/><stop offset="1" stop-color="#ffcd23"/></linearGradient><linearGradient id="New_Gradient_Swatch_copy_2" x1="38.75" y1="44.93" x2="59.07" y2="24.6" gradientUnits="userSpaceOnUse"><stop offset="0" stop-color="#d0e8f8"/><stop offset="1" stop-color="#e1eef9"/></linearGradient><linearGradient id="New_Gradient_Swatch_copy" x1="10.36" y1="54.22" x2="17.24" y2="54.22" gradientUnits="userSpaceOnUse"><stop offset="0" stop-color="#00aeef"/><stop offset="1" stop-color="#00bdf2"/></linearGradient><linearGradient id="New_Gradient_Swatch_copy-2" x1="23.97" y1="54.22" x2="30.86" y2="54.22" xlink:href="#New_Gradient_Swatch_copy"/><linearGradient id="New_Gradient_Swatch_copy-3" x1="38.58" y1="54.22" x2="45.47" y2="54.22" xlink:href="#New_Gradient_Swatch_copy"/></defs><g id="Layer_2" data-name="Layer 2"><g id="Icons"><g id="Scattered_Showers" data-name="Scattered Showers"><circle class="cls-1" cx="48.32" cy="12.96" r="12.96"/><path class="cls-2" d="M46,42.37A10.67,10.67,0,1,0,46,21h-.11A17,17,0,0,0,13.45,16H13.2a13.2,13.2,0,0,0,0,26.4"/><path class="cls-3" d="M60.22,42.37a6.7,6.7,0,1,0,0-13.39h-.07A10.69,10.69,0,0,0,39.78,25.8h-.16a8.29,8.29,0,1,0,0,16.58"/><path class="cls-4" d="M12.35,58.72a2,2,0,0,1-1-.27,2,2,0,0,1-.74-2.73l2.89-5a2,2,0,1,1,3.46,2l-2.88,5A2,2,0,0,1,12.35,58.72Z"/><path class="cls-5" d="M26,58.72a2,2,0,0,1-1.73-3l2.88-5a2,2,0,1,1,3.47,2l-2.89,5A2,2,0,0,1,26,58.72Z"/><path class="cls-6" d="M40.58,58.72a2,2,0,0,1-1.73-3l2.88-5a2,2,0,1,1,3.47,2l-2.89,5A2,2,0,0,1,40.58,58.72Z"/></g></g></g></svg>