<svg xmlns="http://www.w3.org/2000/svg" xmlns:xlink="http://www.w3.org/1999/xlink" viewBox="0 0 67.2 59.05"><defs><style>.cls-1{fill:url(#New_Gradient_Swatch_1);}.cls-2{fill:#fff;}.cls-3{fill:url(#New_Gradient_Swatch_copy_2);}</style><linearGradient id="New_Gradient_Swatch_1" x1="15.79" y1="54.72" x2="35" y2="35.51" gradientUnits="userSpaceOnUse"><stop offset="0" stop-color="#fdb728"/><stop offset="1" stop-color="#ffcd23"/></linearGradient><linearGradient id="New_Gradient_Swatch_copy_2" x1="38.75" y1="39" x2="59.07" y2="18.67" gradientUnits="userSpaceOnUse"><stop offset="0" stop-color="#d0e8f8"/><stop offset="1" stop-color="#e1eef9"/></linearGradient></defs><g id="Layer_2" data-name="Layer 2"><g id="Icons"><g id="Severe_Thunderstorm" data-name="Severe Thunderstorm"><path class="cls-1" d="M27.6,32.7a5.76,5.76,0,0,0-4.5,2.6l-5.27,9.12c-.82,1.43-.15,2.5,1.5,2.38l4.3-.32c1.64-.12,2.34,1,1.56,2.42L20.4,57.7c-.79,1.45-.39,1.78.89.73L38.59,44.2c1.27-1.05,1-1.83-.68-1.75l-6.61.34c-1.65.08-2.32-1-1.5-2.45l2.91-5c.83-1.42.15-2.59-1.5-2.6Z"/><path class="cls-2" d="M46,36.44a10.67,10.67,0,1,0,0-21.33h-.11a17,17,0,0,0-32.44-5.07H13.2a13.2,13.2,0,0,0,0,26.4"/><path class="cls-3" d="M60.22,36.44a6.7,6.7,0,1,0,0-13.39h-.07a10.69,10.69,0,0,0-20.37-3.18h-.16a8.29,8.29,0,0,0,0,16.58"/></g></g></g></svg>