<svg xmlns="http://www.w3.org/2000/svg" xmlns:xlink="http://www.w3.org/1999/xlink" viewBox="0 0 68.06 73.54"><defs><style>.cls-1{fill:url(#New_Gradient_Swatch_copy);}.cls-2{fill:url(#New_Gradient_Swatch_copy_2);}.cls-3{fill:#fff;}.cls-4{fill:url(#New_Gradient_Swatch_copy_2-2);}.cls-5{fill:url(#New_Gradient_Swatch_copy_2-3);}.cls-6{fill:url(#New_Gradient_Swatch_copy_2-4);}.cls-7{fill:url(#New_Gradient_Swatch_copy_2-5);}.cls-8{fill:url(#New_Gradient_Swatch_copy_2-6);}.cls-9{fill:url(#New_Gradient_Swatch_copy_2-7);}.cls-10{fill:url(#New_Gradient_Swatch_copy_2-8);}.cls-11{fill:url(#New_Gradient_Swatch_copy_2-9);}.cls-12{fill:url(#New_Gradient_Swatch_copy_2-10);}.cls-13{fill:url(#New_Gradient_Swatch_copy_2-11);}.cls-14{fill:url(#New_Gradient_Swatch_copy_2-12);}.cls-15{fill:url(#New_Gradient_Swatch_copy_2-13);}</style><linearGradient id="New_Gradient_Swatch_copy" x1="43.68" y1="24.38" x2="59.28" y2="8.78" gradientUnits="userSpaceOnUse"><stop offset="0" stop-color="#00aeef"/><stop offset="1" stop-color="#00bdf2"/></linearGradient><linearGradient id="New_Gradient_Swatch_copy_2" y1="26.76" x2="56.67" y2="26.76" gradientUnits="userSpaceOnUse"><stop offset="0" stop-color="#d0e8f8"/><stop offset="1" stop-color="#e1eef9"/></linearGradient><linearGradient id="New_Gradient_Swatch_copy_2-2" x1="11.14" y1="55.26" x2="15.14" y2="55.26" xlink:href="#New_Gradient_Swatch_copy_2"/><linearGradient id="New_Gradient_Swatch_copy_2-3" x1="21.14" y1="55.26" x2="25.14" y2="55.26" xlink:href="#New_Gradient_Swatch_copy_2"/><linearGradient id="New_Gradient_Swatch_copy_2-4" x1="31.14" y1="55.26" x2="35.14" y2="55.26" xlink:href="#New_Gradient_Swatch_copy_2"/><linearGradient id="New_Gradient_Swatch_copy_2-5" x1="41.14" y1="55.26" x2="45.14" y2="55.26" xlink:href="#New_Gradient_Swatch_copy_2"/><linearGradient id="New_Gradient_Swatch_copy_2-6" x1="11.14" y1="71.54" x2="15.14" y2="71.54" xlink:href="#New_Gradient_Swatch_copy_2"/><linearGradient id="New_Gradient_Swatch_copy_2-7" x1="21.14" y1="71.54" x2="25.14" y2="71.54" xlink:href="#New_Gradient_Swatch_copy_2"/><linearGradient id="New_Gradient_Swatch_copy_2-8" x1="31.14" y1="71.54" x2="35.14" y2="71.54" xlink:href="#New_Gradient_Swatch_copy_2"/><linearGradient id="New_Gradient_Swatch_copy_2-9" x1="41.14" y1="71.54" x2="45.14" y2="71.54" xlink:href="#New_Gradient_Swatch_copy_2"/><linearGradient id="New_Gradient_Swatch_copy_2-10" x1="6.14" y1="63.54" x2="10.14" y2="63.54" xlink:href="#New_Gradient_Swatch_copy_2"/><linearGradient id="New_Gradient_Swatch_copy_2-11" x1="16.14" y1="63.54" x2="20.14" y2="63.54" xlink:href="#New_Gradient_Swatch_copy_2"/><linearGradient id="New_Gradient_Swatch_copy_2-12" x1="26.14" y1="63.54" x2="30.14" y2="63.54" xlink:href="#New_Gradient_Swatch_copy_2"/><linearGradient id="New_Gradient_Swatch_copy_2-13" x1="36.14" y1="63.54" x2="40.14" y2="63.54" xlink:href="#New_Gradient_Swatch_copy_2"/></defs><g id="Layer_2" data-name="Layer 2"><g id="Icons"><g id="Snow_Night" data-name="Snow Night"><path class="cls-1" d="M54,28.67A14.6,14.6,0,0,1,50,0a.77.77,0,0,1,.75.19.76.76,0,0,1,.19.76A13.07,13.07,0,0,0,63.47,17.66a13.17,13.17,0,0,0,3.61-.51.76.76,0,0,1,1,.94A14.67,14.67,0,0,1,54,28.67Z"/><path class="cls-2" d="M46,45a10.67,10.67,0,1,0,0-21.33h-.11a17,17,0,0,0-32.44-5.06H13.2a13.2,13.2,0,0,0,0,26.4"/><path class="cls-3" d="M60.22,45a6.7,6.7,0,1,0,0-13.4h-.07a10.69,10.69,0,0,0-20.37-3.18h-.16a8.29,8.29,0,1,0,0,16.58"/><circle class="cls-4" cx="13.14" cy="55.26" r="2"/><circle class="cls-5" cx="23.14" cy="55.26" r="2"/><circle class="cls-6" cx="33.14" cy="55.26" r="2"/><circle class="cls-7" cx="43.14" cy="55.26" r="2"/><circle class="cls-8" cx="13.14" cy="71.54" r="2"/><circle class="cls-9" cx="23.14" cy="71.54" r="2"/><circle class="cls-10" cx="33.14" cy="71.54" r="2"/><circle class="cls-11" cx="43.14" cy="71.54" r="2"/><circle class="cls-12" cx="8.14" cy="63.54" r="2"/><circle class="cls-13" cx="18.14" cy="63.54" r="2"/><circle class="cls-14" cx="28.14" cy="63.54" r="2"/><circle class="cls-15" cx="38.14" cy="63.54" r="2"/></g></g></g></svg>